PathFileType  4	(X/Y/Z) C:\Users\antoi\Documents\MyRepositories\mobilecap\ResultsAnalysis
DataRate	CameraRate	NumFrames	NumMarkers	Units	OrigDataRate	OrigDataStartFrame	OrigNumFrames
100.0	100.0	7	51	mm	100.0	645	1288
Frame#	Time	r_knee			r_shank_antsup			r_ankle			r_calc			r_5meta			r_toe			L_knee			L_shank_antsup			L_ankle			L_calc			L_5meta			L_toe			r_sh2			r_sh3			r_sh4			L_sh2			L_sh3			r_thigh1			r_thigh2			r_thigh3			r_thigh4			r_thigh5			L_thigh1			L_thigh2			L_thigh3			L_thigh4			r.ASIS			r.PSIS			L.ASIS			L.PSIS			C7			R_Shoulder			L_Shoulder			R_Sternum			L_Sternum			R_humerus			R_elbow_med			R_elbow_lat			R_forearm			R_wrist_radius			R_wrist_ulna			L_humerus			L_elbow_med			L_elbow_lat			L_forearm			L_wrist_radius			L_wrist_ulna			R_HJC			L_HJC			R_HJC_reg			L_HJC_reg			
		X1	Y1	Z1	X2	Y2	Z2	X3	Y3	Z3	X4	Y4	Z4	X5	Y5	Z5	X6	Y6	Z6	X7	Y7	Z7	X8	Y8	Z8	X9	Y9	Z9	X10	Y10	Z10	X11	Y11	Z11	X12	Y12	Z12	X13	Y13	Z13	X14	Y14	Z14	X15	Y15	Z15	X16	Y16	Z16	X17	Y17	Z17	X18	Y18	Z18	X19	Y19	Z19	X20	Y20	Z20	X21	Y21	Z21	X22	Y22	Z22	X23	Y23	Z23	X24	Y24	Z24	X25	Y25	Z25	X26	Y26	Z26	X27	Y27	Z27	X28	Y28	Z28	X29	Y29	Z29	X30	Y30	Z30	X31	Y31	Z31	X32	Y32	Z32	X33	Y33	Z33	X34	Y34	Z34	X35	Y35	Z35	X36	Y36	Z36	X37	Y37	Z37	X38	Y38	Z38	X39	Y39	Z39	X40	Y40	Z40	X41	Y41	Z41	X42	Y42	Z42	X43	Y43	Z43	X44	Y44	Z44	X45	Y45	Z45	X46	Y46	Z46	X47	Y47	Z47	X48	Y48	Z48	X49	Y49	Z49	X50	Y50	Z50	X51	Y51	Z51	

645	6.44000000	-100.88723	405.98008	-353.89653	-105.17193	338.16028	-330.94923	-268.13781	92.01717	-394.02205	-335.98265	57.40102	-439.79198	-175.35792	44.49343	-352.09781	-126.56827	65.27021	-401.86372	-112.47626	403.16526	-839.11537	-88.01647	328.46324	-847.18838	-265.89368	91.96954	-790.02140	-337.55829	59.00423	-739.33928	-180.03942	41.93788	-824.25458	-126.90784	63.65833	-772.20356	-162.10804	239.66478	-336.71295	-166.68518	374.37610	-353.33884	-230.85923	278.86374	-362.32475	-164.98723	374.63383	-858.49086	-217.53753	263.87383	-847.09932	-335.39036	549.47835	-439.26756	-234.35993	527.72964	-394.01667	-239.03911	482.02440	-345.54346	-382.31703	490.99258	-356.25214	-277.20173	439.91272	-346.09104	-341.80855	546.36845	-769.91390	-217.71789	514.67177	-802.49236	-390.85734	443.66233	-802.03581	-252.78746	415.03710	-829.30165	-316.94296	545.24619	-459.87240	-475.26312	630.47951	-530.81928	-321.87442	544.87138	-705.96720	-477.91467	625.69613	-637.60289	-141.99084	919.37767	-577.03042	-89.96043	841.50068	-431.07601	-80.10571	844.29839	-732.93280	-59.87056	797.28280	-557.37125	-59.25089	798.34869	-599.71753	-53.04606	638.95837	-322.10326	-36.85795	521.35239	-365.88652	-44.25989	557.97201	-295.03077	32.00844	639.12595	-314.91439	108.42394	713.86919	-353.08762	141.02934	684.62593	-346.43562	-42.82728	736.62339	-796.65428	-23.85184	516.17200	-801.38692	-31.64264	539.55012	-870.65558	49.54783	617.21061	-859.89975	133.32541	688.39885	-817.50192	161.98967	665.68450	-823.50129	-405.36350	500.41043	-482.82944	-402.65964	499.51350	-683.10159	-404.60018	501.17188	-490.19467	-408.62886	493.90421	-652.43745	
646	6.45000000	-100.86084	405.80890	-353.76990	-105.01781	338.10965	-330.66448	-268.13421	91.99475	-394.03886	-335.99680	57.40158	-439.85119	-175.36378	44.48663	-352.06843	-126.56470	65.26013	-401.83073	-112.37622	402.97318	-839.26672	-87.91550	328.32118	-847.48814	-265.89424	91.94990	-790.01112	-337.51612	58.98851	-739.24189	-180.04637	41.93849	-824.26242	-126.89415	63.62846	-772.21888	-162.15082	239.48479	-336.62229	-166.65637	374.19853	-353.05533	-230.63633	278.97584	-361.91147	-164.93087	374.50798	-858.77644	-217.46768	263.74861	-847.15979	-335.30648	549.18768	-439.48799	-234.37285	527.57048	-393.69966	-238.95271	481.93188	-345.39234	-382.42936	491.07069	-356.00901	-277.13192	439.76217	-346.01536	-341.75000	546.09298	-769.89116	-217.63684	514.54911	-802.70556	-390.75570	443.38206	-802.11061	-252.65796	414.81961	-829.31263	-317.00790	544.95097	-459.75117	-475.22564	630.24654	-530.81715	-321.71182	544.59398	-705.82611	-477.79153	625.46608	-637.72783	-142.02504	919.36363	-576.80033	-89.70381	841.00591	-430.96614	-80.00025	844.15966	-732.69888	-59.83169	797.11233	-556.97785	-59.18920	798.17710	-599.59253	-53.26266	638.76790	-321.92406	-37.09140	521.26813	-365.99918	-44.52009	557.71669	-294.89423	31.80181	638.90733	-314.74243	108.22471	713.61440	-352.82035	140.79150	684.29854	-346.33352	-42.90842	736.32664	-796.46994	-23.77394	515.52822	-801.49493	-32.18483	539.38208	-870.63550	49.02657	616.86017	-859.79276	132.91343	688.09033	-817.73500	161.60657	665.46518	-823.86654	-405.43434	500.15444	-482.80223	-402.52215	499.25602	-683.07132	-404.64335	500.91832	-490.14726	-408.53705	493.66423	-652.37780	
647	6.46000000	-100.80721	405.73973	-353.60947	-104.94528	338.03449	-330.50239	-268.13131	92.00245	-394.04251	-336.01173	57.40041	-439.89467	-175.37601	44.47335	-352.04958	-126.56937	65.25103	-401.77705	-112.29867	402.83759	-839.46829	-87.93107	328.40791	-847.93765	-265.87644	91.98025	-790.01509	-337.51373	58.98862	-739.16847	-180.05499	41.94866	-824.27394	-126.88822	63.65004	-772.31910	-162.16981	239.38782	-336.56253	-166.61258	374.14602	-352.88843	-230.44052	279.04597	-361.50602	-164.91025	374.35170	-858.92363	-217.44854	263.64712	-847.14553	-335.26957	549.21233	-439.53827	-234.40559	527.57523	-393.57244	-238.86436	481.93442	-345.31487	-382.32203	491.15722	-355.97871	-277.09747	439.75733	-346.02658	-341.66275	546.02522	-769.86209	-217.53792	514.52171	-802.95292	-390.62127	443.26493	-802.07414	-252.52411	414.71779	-829.42169	-317.10374	544.76030	-459.70888	-475.19081	630.22752	-530.82529	-321.57623	544.57247	-705.79021	-477.62764	625.49680	-637.83808	-142.18561	919.53768	-576.59091	-89.86496	841.16932	-430.76119	-79.92075	844.28138	-732.38053	-59.85091	797.26861	-556.53552	-59.15306	798.36785	-599.39835	-53.51690	638.93404	-321.66215	-37.34054	521.47436	-365.91869	-44.81633	557.81657	-294.71663	31.59706	638.99603	-314.58153	107.97696	713.70518	-352.53721	140.54439	684.28019	-346.21044	-43.00674	736.39373	-796.33926	-23.99396	515.37299	-801.59453	-32.78422	539.50649	-870.65769	48.38354	616.65670	-859.52228	132.44976	688.04730	-817.93094	161.21923	665.40776	-824.22001	-405.53871	500.04465	-482.87569	-402.43032	499.27393	-683.14238	-404.76957	500.82818	-490.23666	-408.46409	493.65608	-652.47665	
648	6.47000000	-100.76271	405.74732	-353.55327	-104.93190	338.00516	-330.44532	-268.13876	92.04529	-394.04469	-335.99614	57.41719	-439.90850	-175.39132	44.46276	-352.05216	-126.56262	65.27160	-401.72134	-112.24922	402.78296	-839.75432	-87.93046	328.49074	-848.22871	-265.87750	92.00072	-790.01281	-337.52448	59.01796	-739.11868	-180.06667	41.96506	-824.28131	-126.87679	63.69177	-772.42737	-162.17177	239.36634	-336.54171	-166.55966	374.32629	-352.87352	-230.37908	279.08884	-361.32845	-164.87920	374.22287	-858.98453	-217.45842	263.62214	-847.16965	-335.25508	549.57388	-439.35407	-234.43219	527.78011	-393.65836	-238.81427	482.06665	-345.35956	-382.09724	491.16796	-356.20392	-277.10560	439.95156	-346.03068	-341.53615	546.11838	-769.81328	-217.40963	514.59796	-803.19163	-390.46572	443.34551	-802.05216	-252.42144	414.77340	-829.56340	-317.06368	545.00027	-459.76186	-475.14683	630.44102	-530.88443	-321.37249	544.81092	-705.92622	-477.46885	625.69097	-637.84118	-142.36922	919.93361	-576.24319	-90.17527	841.73134	-430.55542	-79.85392	844.66348	-732.03949	-59.92107	797.76682	-556.19943	-59.15290	798.87079	-599.12719	-53.77626	639.36617	-321.39445	-37.58450	521.97545	-365.69315	-45.11719	558.33781	-294.42471	31.34880	639.38293	-314.39645	107.72419	714.14420	-352.24920	140.31821	684.61887	-346.04114	-43.15586	736.79299	-796.25709	-24.30056	515.50970	-801.76862	-33.45386	539.91841	-870.70973	47.67453	616.92112	-859.52973	132.00379	688.21775	-818.02465	160.76809	665.59565	-824.63489	-405.43677	500.24500	-482.95726	-402.26706	499.51343	-683.22333	-404.74286	501.04041	-490.38430	-408.26619	493.83249	-652.67949	
649	6.48000000	-100.74283	405.81361	-353.65851	-104.93277	338.05723	-330.41764	-268.13491	92.07566	-394.06557	-335.97637	57.46067	-439.91276	-175.39124	44.47368	-352.04350	-126.53173	65.30551	-401.68208	-112.22295	402.78879	-840.00473	-87.88517	328.50795	-848.35845	-265.90856	91.97077	-789.99083	-337.51248	59.05443	-739.03689	-180.07644	41.98451	-824.28078	-126.85482	63.72671	-772.49259	-162.16472	239.39055	-336.54687	-166.53898	374.47546	-352.92267	-230.40591	279.11264	-361.37778	-164.83628	374.16719	-859.05343	-217.46653	263.66637	-847.26241	-335.09665	549.96895	-439.63936	-234.33716	528.01130	-393.84771	-238.76894	482.41526	-345.43088	-381.83338	491.28907	-356.56934	-277.09717	440.31564	-345.94543	-341.38791	546.36699	-769.74299	-217.25620	514.73536	-803.35371	-390.35732	443.62102	-801.99126	-252.37651	414.96957	-829.68830	-316.85890	545.82555	-459.77951	-475.08567	630.91573	-530.96836	-321.08552	545.27707	-706.03610	-477.40648	626.03481	-637.81468	-142.39273	920.50651	-575.97595	-90.18199	842.20905	-430.34924	-79.83076	845.35298	-731.73230	-60.00513	798.52689	-555.97940	-59.18394	799.60458	-598.83571	-54.02377	640.04360	-321.21691	-37.83263	522.72439	-365.33864	-45.41517	559.12005	-294.19653	31.04160	640.10191	-314.23578	107.49676	714.86742	-351.99226	140.13022	685.32588	-345.74669	-43.36356	737.44463	-796.23842	-24.58935	515.89202	-801.87392	-34.18193	540.59301	-870.68235	47.04404	617.65667	-859.80541	131.60866	688.59943	-818.12498	160.24103	666.08023	-825.05809	-405.12193	500.87668	-482.90232	-401.98720	499.91832	-683.16780	-404.44011	501.64205	-490.35527	-407.96638	494.22561	-652.70144	
650	6.49000000	-100.71968	405.97473	-353.78831	-104.95262	338.11237	-330.45913	-268.11183	92.07257	-394.09497	-335.98781	57.50229	-439.90564	-175.36680	44.49675	-352.01717	-126.50077	65.30933	-401.66352	-112.20899	402.82857	-840.12114	-87.85318	328.56192	-848.49404	-265.93296	91.96484	-789.96354	-337.50033	59.08296	-738.94734	-180.08084	42.00652	-824.27497	-126.84499	63.75393	-772.51794	-162.14108	239.51344	-336.58588	-166.52115	374.43619	-352.92260	-230.48350	279.15905	-361.63002	-164.80492	374.20394	-859.16103	-217.49068	263.76135	-847.37378	-334.85871	550.39398	-440.24766	-234.14131	528.23293	-394.08079	-238.69312	482.93126	-345.44931	-381.61538	491.72865	-356.78271	-277.03981	440.82796	-345.84554	-341.24601	546.85980	-769.78465	-217.10770	514.89042	-803.37226	-390.31334	444.05389	-801.85414	-252.36558	415.26769	-829.82021	-316.71963	546.84145	-459.66559	-475.00566	631.65576	-531.01817	-320.86149	545.86959	-705.91644	-477.38203	626.62997	-637.94179	-142.16626	921.04160	-576.37714	-90.13747	842.92623	-430.05567	-79.85732	846.35741	-731.57163	-60.06820	799.49590	-555.83105	-59.20783	800.51424	-598.49961	-54.24670	641.01829	-321.10669	-38.07789	523.67431	-364.83367	-45.69257	560.06133	-294.08135	30.74347	641.13336	-314.03321	107.28237	715.82345	-351.74691	139.95783	686.38283	-345.30523	-43.57525	738.33732	-796.26570	-25.29942	517.00111	-801.70315	-34.89421	541.50498	-870.61826	46.53566	618.60557	-860.12260	131.23843	689.25470	-818.43525	159.75347	666.70898	-825.33787	-404.94863	501.77509	-482.74528	-401.75411	500.48211	-683.00780	-404.17863	502.49649	-490.13738	-407.78631	494.86669	-652.46795	
651	6.50000000	-100.68295	406.21837	-353.83647	-105.00093	338.18642	-330.59449	-268.09106	92.05631	-394.10022	-335.99465	57.52716	-439.87318	-175.34407	44.48682	-351.99994	-126.50295	65.29246	-401.66992	-112.20422	402.90520	-840.13238	-87.85080	328.65901	-848.60812	-265.91120	92.08983	-789.93958	-337.50589	59.10816	-738.88539	-180.08299	42.02826	-824.26757	-126.85479	63.77807	-772.52611	-162.16038	239.74235	-336.66378	-166.48195	374.43021	-352.93658	-230.61552	279.09399	-361.99455	-164.79507	374.31307	-859.22702	-217.53123	263.88432	-847.41646	-334.80669	551.24099	-440.07368	-233.96763	528.66895	-394.26289	-238.60708	483.47340	-345.50116	-381.48709	492.44859	-356.81337	-277.00563	441.42569	-345.89734	-341.10355	547.61822	-770.05380	-216.96802	515.09169	-803.26767	-390.24724	444.67442	-801.86088	-252.36199	415.64810	-829.91860	-316.76357	547.69640	-459.54738	-474.92154	632.60875	-531.03257	-320.78861	546.55291	-705.75110	-477.28910	627.51221	-638.14307	-141.96491	921.73465	-577.08676	-90.35754	844.19526	-429.76733	-79.92365	847.58731	-731.59928	-60.11152	800.69242	-555.70056	-59.25508	801.62832	-598.17897	-54.45573	642.34670	-320.88236	-38.28738	524.88455	-364.38210	-45.93926	561.28512	-293.85654	30.49378	642.41241	-313.63957	107.06236	717.06849	-351.44454	139.76086	687.73447	-344.84174	-43.77587	739.50099	-796.27062	-26.70765	519.04038	-801.40835	-35.56633	542.67641	-870.71303	46.03724	619.62904	-860.42177	130.87696	690.16387	-818.84480	159.34493	667.35611	-825.43165	-405.05119	502.71156	-482.66058	-401.71328	501.24498	-682.91970	-404.21878	503.42072	-490.00044	-407.80611	495.69860	-652.29513	
